<svg xmlns="http://www.w3.org/2000/svg" xmlns:xlink="http://www.w3.org/1999/xlink"  viewBox="0 0 596 175">
  <defs>
    <clipPath id="clip-path">
      <rect x="-12" y="-7" width="596" height="175" fill="none"/>
    </clipPath>
  </defs>
  <g id="Scroll_Group_25" data-name="Scroll Group 25" transform="translate(12 7)" clip-path="url(#clip-path)" style="isolation: isolate">
    <g id="skilled_" data-name="skilled " transform="translate(-674.5 -1895.913)">
      <g id="Group_1037" data-name="Group 1037">
        <g id="ASSSAASAS" transform="translate(826.726 1896.273)">
          <g id="Group_761" data-name="Group 761" transform="translate(0 0)">
            <path id="Path_3950" data-name="Path 3950" d="M62.163,79.2a33.179,33.179,0,0,1-20.647.375c-5.113-1.634-9.551-4.2-11.681-9.521-.27-.675-.825-.78-1.394-.99a15.812,15.812,0,0,1-5.1-2.954,9.33,9.33,0,0,1-3.329-7.767c.3-6.942,2.024-13.36,6.7-18.7,1.035-1.17.315-2.129.045-3.149C25.112,30.1,30.03,23.9,36.448,24.3a8.816,8.816,0,0,1,4.693,1.634c.63.45,1.035.6,1.664-.045a12.109,12.109,0,0,1,9.986-3.539A12.7,12.7,0,0,1,59.629,25.7c.465.45.765.675,1.5.27,5.323-2.939,9.4-2.024,13.345,2.879L75.688,31.9c.06.195.1.4.165.6a4.792,4.792,0,0,0,.03,2.114c-1.095,2.744-.525,4.9,1.365,7.362,4.019,5.218,5.128,11.531,4.963,17.978-.1,3.7-2.579,6.043-5.608,7.8-3.479,2.024-3.509,1.994-5.818,5.218C68.6,76,65.432,77.667,62.163,79.2ZM50.842,78.162a26.3,26.3,0,0,0,13.135-3.074c4.978-2.744,6.673-6.118,5.878-11.681-.06-.42-.075-.84-.1-1.245a34.686,34.686,0,0,0-6.957-18.728c-1.185-1.6-1.364-1.6-2.609-.135-4.6,5.4-13.645,5.293-17.978-.315-.99-1.29-1.544-1.125-2.339-.015-.24.345-.525.645-.78.975C34.363,50.063,32.714,57.14,32.2,64.7c-.345,5.218,2.144,8.337,6.4,10.571A25.464,25.464,0,0,0,50.842,78.162Zm.51-33.753a9.623,9.623,0,1,0-9.342-9.417A9.516,9.516,0,0,0,51.352,44.41Zm15.234-.675c1,1.889,1.949,3.554,2.774,5.263,2.4,5.008,3.134,10.391,3.479,15.834.09,1.409.555,1.514,1.589.945,2.024-1.11,3.944-2.369,4.708-4.693.66-1.979.21-4.019,0-6.043a25.452,25.452,0,0,0-4.708-12.4c-.795-1.125-1.469-1.739-2.834-.6A8.552,8.552,0,0,1,66.586,43.735Zm-30.874,0a8.3,8.3,0,0,1-5.143-1.784c-1.215-1.08-1.754-.57-2.519.435-3.314,4.408-4.618,9.432-5.173,14.83-.42,4.064,1.335,6.6,4.693,8.412,1.185.645,1.8.66,1.844-.99A44.528,44.528,0,0,1,31.2,53.152,35.2,35.2,0,0,1,35.713,43.735ZM29.325,32.7c-.03,5.638,3.659,8.817,7.812,8.067a2.682,2.682,0,0,0,2.324-3.4,11.792,11.792,0,0,1,.585-7.047,1.593,1.593,0,0,0-.87-2.324,6.207,6.207,0,0,0-6.343-.06C30.51,29.235,29.34,31.3,29.325,32.7Zm43.664,1.409c.03-5.278-5.233-8.622-9.716-6.208-.945.51-1.29,1-.78,2.1a12.179,12.179,0,0,1,.645,7.722c-.375,1.829.24,2.729,2.114,3.029A6.631,6.631,0,0,0,72.989,34.109Z" transform="translate(-3.358 -3.341)" fill="#4559aa"/>
            <path id="Path_3951" data-name="Path 3951" d="M36.264,13.423c-1.215.285-2.429.555-3.644.84-1.08.255-2.384.885-2.834-.7-.45-1.619,1.095-1.664,2.084-2.069.555-.21,1.125-.36,1.694-.525A48.854,48.854,0,0,1,61.86,12.7a46.993,46.993,0,0,1,20.333,14.53c.9,1.11,1.8,2.234,2.7,3.344.45.7.9,1.424,1.35,2.129l1.664,2.834c.765,1.694,1.544,3.374,2.309,5.068A52.763,52.763,0,0,1,93.3,58.9,47.231,47.231,0,0,1,83.947,86.3c-.87,1.185-1.095,1.949.195,2.924a20.275,20.275,0,0,1,2.684,2.639c1.32,1.469.825,3.314-1.095,3.719-4.273.9-8.577,1.709-12.88,2.444-1.784.315-2.894-.69-2.609-2.459q1.08-6.635,2.459-13.225c.375-1.754,2.279-2.159,3.674-.9a36.208,36.208,0,0,1,3.3,3.314c.915,1.095,1.454.78,2.144-.195A45.474,45.474,0,0,0,89.96,64.839a42.948,42.948,0,0,0-2.879-23.9,25.837,25.837,0,0,0-3.059-6.268A41.411,41.411,0,0,0,72.881,22.045c-.225-.18-.435-.42-.78-.24h0c.075-.57-.4-.585-.735-.75a4.39,4.39,0,0,0-2.849-1.874,41.231,41.231,0,0,0-16.974-6.223,40.476,40.476,0,0,0-14.41.27.817.817,0,0,0-.795.225Zm47.4,79.756c.075-.18.15-.375.225-.555-1.424-1.35-2.864-2.684-4.273-4.034-1.424-1.379-2.819-2.789-4.483-4.423-.63,3.524-1.155,6.613-1.769,9.686-.21,1.05.225,1.155,1.02,1.02Q79.036,94.041,83.662,93.179Z" transform="translate(1.489 -9.661)" fill="#4559aa"/>
            <path id="Path_3952" data-name="Path 3952" d="M61.08,103.578a50.5,50.5,0,0,1-22.807-3.914A48.2,48.2,0,0,1,9.184,50.437a47,47,0,0,1,9.581-24.051c.84-1.08.915-1.739-.165-2.624-.885-.7-1.574-1.649-2.4-2.429a2.424,2.424,0,0,1-.945-2.534,2.361,2.361,0,0,1,2.129-1.664c4.123-.765,8.232-1.6,12.355-2.354,1.814-.33,3.014.7,2.729,2.549-.69,4.363-1.5,8.727-2.414,13.06-.39,1.814-2.219,2.279-3.629,1.05a33.334,33.334,0,0,1-3.194-3.149c-1-1.17-1.6-1.14-2.534.15a44.169,44.169,0,0,0-8.292,19.853Q9.214,71.662,26.053,88.328A43.565,43.565,0,0,0,42.487,98.389a38.293,38.293,0,0,0,17.019,2.324,22.8,22.8,0,0,0,3.9-.42.941.941,0,0,0,.915-.27.942.942,0,0,0,1.424-.06c1.155-.225,2.309-.465,3.464-.69.81-.165,1.784-.54,2.1.585a1.6,1.6,0,0,1-1.439,2.069c-2.549.54-5.128.975-7.692,1.454C61.784,103.443,61.425,103.518,61.08,103.578ZM27.537,28.725c.645-3.614,1.155-6.673,1.754-9.7.18-.885.06-1.275-.9-1.095-2.819.51-5.653,1-8.472,1.529-.81.15-1.035.57-.39,1.215C22.094,23.237,24.658,25.816,27.537,28.725Z" transform="translate(-8.902 -7.134)" fill="#4559aa"/>
            <path id="Path_3953" data-name="Path 3953" d="M46.8,71.58a25.663,25.663,0,0,1-12.265-2.894c-4.258-2.234-6.748-5.368-6.4-10.571.51-7.557,2.159-14.635,6.882-20.752.255-.33.54-.645.78-.975.795-1.11,1.35-1.275,2.339.015,4.333,5.593,13.375,5.7,17.978.315,1.245-1.454,1.424-1.469,2.609.135A34.686,34.686,0,0,1,65.677,55.58c.03.42.045.84.1,1.245.795,5.563-.885,8.937-5.878,11.681A26.069,26.069,0,0,1,46.8,71.58Z" transform="translate(0.686 3.242)" fill="#83c4fc"/>
            <path id="Path_3954" data-name="Path 3954" d="M44.022,43.458a9.623,9.623,0,1,1,9.342-9.641A9.456,9.456,0,0,1,44.022,43.458Z" transform="translate(3.972 -2.389)" fill="#fdfdfd"/>
            <path id="Path_3955" data-name="Path 3955" d="M51.07,37.367a8.588,8.588,0,0,0,5.008-1.694c1.365-1.14,2.039-.525,2.834.6a25.508,25.508,0,0,1,4.708,12.4c.21,2.024.645,4.064,0,6.043-.765,2.324-2.684,3.584-4.708,4.693-1.035.57-1.5.465-1.589-.945-.345-5.443-1.095-10.841-3.479-15.834C53.019,40.905,52.075,39.256,51.07,37.367Z" transform="translate(12.158 3.027)" fill="#f4d088"/>
            <path id="Path_3956" data-name="Path 3956" d="M34.775,37.393a35.419,35.419,0,0,0-4.513,9.417A44.528,44.528,0,0,0,28.477,58.3c-.045,1.664-.66,1.634-1.844.99-3.359-1.814-5.1-4.348-4.693-8.412.555-5.4,1.859-10.436,5.173-14.83.75-1,1.29-1.5,2.519-.435A8.426,8.426,0,0,0,34.775,37.393Z" transform="translate(-2.42 3.001)" fill="#f4d088"/>
            <path id="Path_3957" data-name="Path 3957" d="M26.22,31.109c.015-1.394,1.185-3.449,3.509-4.768a6.207,6.207,0,0,1,6.343.06,1.593,1.593,0,0,1,.87,2.324,11.791,11.791,0,0,0-.585,7.047,2.682,2.682,0,0,1-2.324,3.4C29.864,39.926,26.19,36.732,26.22,31.109Z" transform="translate(-0.253 -1.751)" fill="#fdfdfd"/>
            <path id="Path_3958" data-name="Path 3958" d="M58.915,32.509a6.644,6.644,0,0,1-7.737,6.658c-1.874-.3-2.489-1.215-2.114-3.029a12.179,12.179,0,0,0-.645-7.722c-.51-1.11-.165-1.6.78-2.1A6.64,6.64,0,0,1,58.915,32.509Z" transform="translate(10.717 -1.742)" fill="#fdfdfd"/>
            <path id="Path_3959" data-name="Path 3959" d="M69.138,68.367c-3.089.57-6.178,1.14-9.282,1.679-.78.135-1.23.03-1.02-1.02.63-3.074,1.14-6.163,1.769-9.686,1.649,1.634,3.044,3.044,4.483,4.423,1.409,1.365,2.849,2.7,4.273,4.034A3.221,3.221,0,0,1,69.138,68.367Z" transform="translate(16.012 15.151)" fill="#83c4fc"/>
            <path id="Path_3960" data-name="Path 3960" d="M24.122,27.67c-2.879-2.909-5.443-5.473-8.007-8.052-.645-.645-.42-1.065.39-1.215,2.819-.525,5.638-1.02,8.472-1.529.96-.18,1.08.21.9,1.095C25.276,21,24.767,24.057,24.122,27.67Z" transform="translate(-5.487 -6.08)" fill="#83c4fc"/>
          </g>
        </g>
      </g>
      <g id="Group_1036" data-name="Group 1036">
        <g id="opportunity-1658250-1407148" transform="translate(986.268 1897.273)">
          <path id="Path_3920" data-name="Path 3920" d="M85.409,135.935c.634-10.35,1.132-11.521,6.415-14.975-2.408-2.526-3.7-5.455-3.008-9a9.158,9.158,0,0,1,3.556-5.675,9.332,9.332,0,0,1,12.324.869c3.74,3.767,3.622,8.811-.415,13.82,3.783,2.185,6.148,5.326,6.27,9.826.059,2.154.016,4.308.016,6.462v1.684l.513.305a32.61,32.61,0,0,0,2.839-3.243c1.163-1.727,2.091-3.611,3.168-5.4,1.527-2.53,4.159-3.415,6.509-2.244,2.33,1.159,3.156,3.552,2.138,6.348-.869,2.389-1.813,4.75-2.675,7.143a11.235,11.235,0,0,1-5.859,6.509c-8.009,3.951-15.978,7.989-24.006,11.905-2.816,1.375-4.652,3.282-4.758,6.552-.043,1.308-.826,1.79-2.072,1.786-5.874-.016-11.749.012-17.623-.02-1.762-.012-2.354-.811-1.8-2.538,2.107-6.579,4.222-13.15,6.438-19.694a14.671,14.671,0,0,1,10.7-9.943C84.516,136.3,84.935,136.112,85.409,135.935Zm-.059,29.54c.787-3.987,3.1-6.387,6.493-8.036,7.969-3.877,15.931-7.774,23.779-11.89a10.738,10.738,0,0,0,4.128-4.155,42.381,42.381,0,0,0,2.984-7.84c.208-.662-.325-1.559-.521-2.346-.815.333-1.939.435-2.377,1.038-1.183,1.621-2.064,3.466-3.09,5.208a10.913,10.913,0,0,1-5.557,5.013c-5.5,2.04-11,4.069-16.53,6.023a3.977,3.977,0,0,1-5.216-2.181c-.811-2.033.1-4.065,2.346-5.1,1.715-.791,3.47-1.5,5.2-2.256.956-.415,2.177-.779,1.668-2.162-.47-1.285-1.578-1.053-2.655-.721-3.8,1.175-7.6,2.346-11.416,3.462a11.353,11.353,0,0,0-8.04,7.351c-2.005,5.714-3.877,11.474-5.788,17.223a7.311,7.311,0,0,0-.157,1.371H83.85C84.308,165.475,84.758,165.475,85.35,165.475Zm15.626-41.923c-.02.055-.067.121-.055.164a2.67,2.67,0,0,0,.29.713c1.637,2.189,1.566,4.527.865,7.041a9.973,9.973,0,0,0-.368,4.2c.486,2.839-.243,4.7-2.843,5.894-1.778.815-3.611,1.512-5.377,2.35-.443.208-.721.76-1.073,1.151.568.1,1.218.439,1.7.274q6.191-2.15,12.309-4.5a1.859,1.859,0,0,0,.959-1.367c.086-3,.141-6.007.012-9A7.227,7.227,0,0,0,100.975,123.553ZM98.019,111.9c-1.684.529-3.407,1.042-5.111,1.621-.959.329-1.175.979-.862,2a6.238,6.238,0,0,0,11.776.615c.591-1.4.388-2.381-1.159-2.851C101.187,112.838,99.7,112.4,98.019,111.9Zm-2.53,11.623c-4.778.337-7.973,4.825-6.552,11.4l5.757-1.754C93.445,129.83,92.708,126.588,95.489,123.525Zm2.534,1.97a5.855,5.855,0,0,0,.407,7.425C99.06,130.312,100.3,127.935,98.023,125.495Zm4.237-16.119a5.488,5.488,0,0,0-8.388,0Z" transform="translate(-51.028 -73.07)" fill="#2460a8"/>
          <path id="Path_3921" data-name="Path 3921" d="M210.364,62.985c-.313-.2-.364-.255-.419-.258-6.751-.208-5.808-.482-5.847,5.365-.02,3.2-.02,6.4-.031,9.591a2.587,2.587,0,0,1-.141.505h-2.91c0-4.923-.114-9.8.051-14.67.078-2.291,2.17-3.9,4.59-3.983,1.758-.055,3.525.043,5.283-.031,1.782-.078,2.816.513,2.467,3,2.009-1.672,3.654-3.047,5.467-4.555-1.8-1.5-3.423-2.859-5.361-4.476.282,2.671-1.085,3.012-2.98,2.933-2.542-.106-5.091-.055-7.633-.008-3.231.059-5.028,1.9-5.064,5.169-.027,2.346,0,4.688,0,7.19h-3.015a79.122,79.122,0,0,1,.07-9.093,7.509,7.509,0,0,1,7.543-6.4c2.538-.059,5.079-.012,7.938-.012a15.882,15.882,0,0,1,.039-2.749,2.73,2.73,0,0,1,.948-1.719,1.938,1.938,0,0,1,1.739.305c3.051,2.452,6.043,4.977,9.035,7.5,1.23,1.042.869,2.017-.227,2.921-2.863,2.373-5.7,4.786-8.6,7.1-.486.388-1.465.744-1.872.513a3.03,3.03,0,0,1-1.026-1.86A10.173,10.173,0,0,1,210.364,62.985Z" transform="translate(-128.884 -39.195)" fill="#2460a8"/>
          <path id="Path_3922" data-name="Path 3922" d="M36.03,53.492l-5.361,4.476c1.747,1.472,3.364,2.835,5.369,4.519-.4-2.9,1.218-3.035,3.082-2.953,1.629.074,3.266-.035,4.9.039a4.433,4.433,0,0,1,4.464,4.12c.141,4.809.043,9.63.043,14.549H45.417V70.716q0-3.037.008-6.07c0-1.273-.587-1.954-1.888-1.958-1.363,0-2.726,0-4.37,0a15.617,15.617,0,0,1-.039,2.761,2.71,2.71,0,0,1-.975,1.707,1.972,1.972,0,0,1-1.735-.329c-3.051-2.452-6.047-4.977-9.039-7.5-1.112-.94-.944-1.907.114-2.788,2.906-2.424,5.792-4.876,8.749-7.241.482-.388,1.469-.721,1.872-.486a3.048,3.048,0,0,1,1.01,1.872,12.985,12.985,0,0,1,.039,2.6c2.42,0,4.742-.008,7.069,0,5.447.02,8.6,3.207,8.6,8.666,0,2.267,0,4.535,0,6.9H51.694c0-2.33,0-4.656,0-6.983-.012-3.619-1.8-5.432-5.393-5.451-2.479-.012-4.966-.082-7.441.023C36.97,56.523,35.764,56.049,36.03,53.492Z" transform="translate(-26.619 -39.223)" fill="#2460a8"/>
          <path id="Path_3923" data-name="Path 3923" d="M132.273,28.431c-1.523,1.829-2.847,3.423-4.476,5.385,2.722-.329,3.012,1.093,2.945,2.953-.09,2.593-.023,5.185-.023,7.9h-3.055V36.949a14.1,14.1,0,0,1-2.671-.039,3.036,3.036,0,0,1-1.884-.983c-.243-.4.078-1.394.462-1.876,2.318-2.9,4.735-5.722,7.1-8.592,1.085-1.316,2.107-1.355,3.2-.027,2.365,2.863,4.778,5.69,7.092,8.592.388.486.732,1.469.5,1.872a3.034,3.034,0,0,1-1.868,1.006,12.5,12.5,0,0,1-2.546.039v7.715h-3.192c0-3.129-.141-6.188.1-9.215.059-.764,1.328-1.429,2.232-2.334C135.128,31.846,133.741,30.189,132.273,28.431Z" transform="translate(-85.27 -24.453)" fill="#2460a8"/>
          <path id="Path_3924" data-name="Path 3924" d="M103.84,97.62c.7.9,1.238,1.606,1.9,2.467-.7.627-1.355,1.21-2.2,1.958-.674-.756-1.3-1.465-2.052-2.307C102.218,99.081,102.919,98.45,103.84,97.62Z" transform="translate(-72.169 -68.967)" fill="#2460a8"/>
          <path id="Path_3925" data-name="Path 3925" d="M161.11,89.442c.262-1.026.482-1.888.768-2.992,1.05.352,1.982.666,3.1,1.038-.423,1.03-.779,1.9-1.179,2.871C162.888,90.045,162.113,89.783,161.11,89.442Z" transform="translate(-108.441 -62.171)" fill="#2460a8"/>
          <path id="Path_3926" data-name="Path 3926" d="M188.111,107.683c-.646-.717-1.23-1.367-1.911-2.126l2.393-1.927c.49.529,1.159,1.249,1.982,2.138Z" transform="translate(-123.705 -72.623)" fill="#2460a8"/>
          <path id="Path_3927" data-name="Path 3927" d="M95.383,111.418c-.576.858-1.038,1.547-1.6,2.377l-2.675-1.543c.646-.956,1.206-1.774,1.833-2.7C93.8,110.208,94.509,110.748,95.383,111.418Z" transform="translate(-65.854 -76.225)" fill="#2460a8"/>
          <path id="Path_3928" data-name="Path 3928" d="M203.818,131.59c.227,1.155.4,2.025.611,3.129-1.053.157-1.966.29-3,.446-.211-.94-.392-1.739-.619-2.737C201.777,132.162,202.686,131.907,203.818,131.59Z" transform="translate(-132.594 -89.633)" fill="#2460a8"/>
          <path id="Path_3929" data-name="Path 3929" d="M133.535,88.008c-1.073.2-1.821.341-2.737.509-.258-.959-.5-1.868-.787-2.937,1.057-.219,1.974-.411,3.117-.65C133.276,86.03,133.394,86.943,133.535,88.008Z" transform="translate(-89.52 -61.246)" fill="#2460a8"/>
          <path id="Path_3930" data-name="Path 3930" d="M116.1,93.415c-.556-.956-1.006-1.723-1.57-2.7.959-.49,1.837-.94,2.886-1.476.411.956.76,1.766,1.206,2.8Z" transform="translate(-80.102 -63.868)" fill="#2460a8"/>
          <path id="Path_3931" data-name="Path 3931" d="M195.15,117.756c.94-.548,1.707-1,2.679-1.566.493.963.94,1.841,1.476,2.89-1.014.431-1.872.8-2.863,1.218C196.008,119.448,195.636,118.716,195.15,117.756Z" transform="translate(-129.15 -80.264)" fill="#2460a8"/>
          <path id="Path_3932" data-name="Path 3932" d="M205.847,148.664c-.059,1.018-.114,1.9-.176,3.023-1.038-.082-1.954-.157-2.941-.239V148.66C203.729,148.664,204.653,148.664,205.847,148.664Z" transform="translate(-133.762 -100.019)" fill="#2460a8"/>
          <path id="Path_3933" data-name="Path 3933" d="M83.851,159.545c-.2-1.1-.376-2.025-.591-3.168l3.031-.337c.2.971.356,1.77.544,2.71C85.833,159.016,84.928,159.259,83.851,159.545Z" transform="translate(-61.078 -104.508)" fill="#2460a8"/>
          <path id="Path_3934" data-name="Path 3934" d="M87.47,171.176c1.042-.446,1.86-.8,2.859-1.226.439.865.83,1.633,1.3,2.561-.932.54-1.743,1.01-2.671,1.547C88.453,173.083,88.018,172.241,87.47,171.176Z" transform="translate(-63.64 -112.971)" fill="#2460a8"/>
          <path id="Path_3935" data-name="Path 3935" d="M149.643,87.732H147V84.76h3.008C149.871,85.841,149.761,86.761,149.643,87.732Z" transform="translate(-99.857 -61.143)" fill="#2460a8"/>
          <path id="Path_3936" data-name="Path 3936" d="M176.137,92.77c.979.658,1.758,1.183,2.694,1.805-.674.889-1.238,1.633-1.856,2.452-.807-.525-1.5-.971-2.385-1.551C175.072,94.642,175.53,93.835,176.137,92.77Z" transform="translate(-116.642 -66.016)" fill="#2460a8"/>
          <path id="Path_3937" data-name="Path 3937" d="M87.713,127.885c-1.14-.317-1.931-.54-2.933-.822.349-1.038.658-1.966,1.026-3.062,1.053.439,1.915.791,2.886,1.194C88.34,126.162,88.042,126.976,87.713,127.885Z" transform="translate(-62.003 -85.016)" fill="#2460a8"/>
          <path id="Path_3938" data-name="Path 3938" d="M82.869,140.18c1.155.157,1.982.266,2.91.392v2.694H82.72C82.767,142.306,82.81,141.367,82.869,140.18Z" transform="translate(-60.75 -94.859)" fill="#2460a8"/>
        </g>
      </g>
      <g id="Group_1124" data-name="Group 1124">
        <g id="Group_1035" data-name="Group 1035">
          <g id="sagea" transform="translate(1144.137 1896.041)">
            <g id="Group_820" data-name="Group 820" transform="translate(0)">
              <path id="Path_3961" data-name="Path 3961" d="M45.777,48.8c1.536-1.709,2.955-3.245,4.346-4.839.971-1.13,1.941-1.1,3.129-.29,3.694,2.506,5.809,5.853,5.824,10.4,0,5.143.014,10.286,0,15.429,0,3.028-.014,3.028-2.955,3.173-.275.014-.536.072-.753.087,0,3.506-.13,6.925.029,10.344.261,5.737.333,5.679-5.418,5.549a2.215,2.215,0,0,1-2.434-2.043A64.911,64.911,0,0,0,45.4,78.43c-.579,2.666-1.231,5.331-1.738,8.011a2.371,2.371,0,0,1-2.724,2.231c-5.882-.1-5.36.579-5.172-5.346.116-3.448.014-6.9.014-10.5.1.072,0-.072-.116-.072-3.564-.362-3.578-.348-3.578-4.071-.014-5-.043-10.011.014-15.009a11.8,11.8,0,0,1,5.592-10.1,2.22,2.22,0,0,1,3.332.348C42.43,45.471,43.951,46.934,45.777,48.8Z" transform="translate(1.438 2.525)" fill="#2460a8"/>
              <path id="Path_3962" data-name="Path 3962" d="M63.686,29.335c.666-1.1,1.434-2.347,2.26-3.709.826.493,1.579.956,2.347,1.42C67.525,28.422,66.8,29.682,66.062,31c1.507,1.3,3,2.477,4.332,3.81,1.289,1.289,2.4,2.738,3.651,4.172,1.289-.739,2.55-1.463,3.883-2.217.478.753.927,1.478,1.434,2.3-1.3.826-2.593,1.623-3.738,2.347.971,3.651,1.912,7.157,2.9,10.909h4.4v2.9h-4.39c-.971,3.738-1.883,7.258-2.868,11.025,1.029.652,2.318,1.463,3.665,2.318-.449.782-.869,1.492-1.347,2.332-1.362-.753-2.666-1.492-4.013-2.246-1.347,1.55-2.55,3.129-3.969,4.462-.478.449-1.536.3-2.318.42.145-.8,0-1.869.464-2.347a24.648,24.648,0,0,0,7.287-16.443,24.27,24.27,0,0,0-47.677-7.186C25.672,55.3,27.323,62.336,32.1,68.711c.377.507.971.927,1.173,1.478.261.739.623,1.869.275,2.3-.884,1.1-1.753.217-2.4-.551-.869-1.014-1.681-2.086-2.68-3.332-1.289.724-2.622,1.463-4.071,2.274l-1.391-2.332c1.347-.84,2.608-1.623,3.709-2.3-.971-3.636-1.912-7.142-2.912-10.923H19.5V52.34h4.288c.985-3.709,1.941-7.273,2.941-11-1.072-.652-2.318-1.434-3.68-2.26.449-.739.884-1.434,1.405-2.3,1.3.724,2.579,1.42,3.839,2.13-.188-.2-.377-.406-.579-.608,2.651-2.579,5.288-5.157,7.939-7.736.232.159.464.3.7.464-.71-1.275-1.405-2.55-2.173-3.941.739-.478,1.478-.942,2.289-1.463.811,1.318,1.579,2.564,2.289,3.723l10.88-2.926v-4.3h3.013v4.288C56.4,27.393,59.9,28.321,63.686,29.335Z" transform="translate(-4.201 -6.836)" fill="#2460a8"/>
              <path id="Path_3963" data-name="Path 3963" d="M44.063,48.536a9.138,9.138,0,0,1-8.953-9.083,9.1,9.1,0,0,1,18.2.29A9.163,9.163,0,0,1,44.063,48.536Z" transform="translate(2.804 -3.031)" fill="#2460a8"/>
              <path id="Path_3964" data-name="Path 3964" d="M43.21,11.57a6.066,6.066,0,0,1,6.244,6.041,6.159,6.159,0,1,1-12.314-.043A6.035,6.035,0,0,1,43.21,11.57Z" transform="translate(3.715 -11.57)" fill="#2460a8"/>
              <path id="Path_3965" data-name="Path 3965" d="M15.068,52.027a6.211,6.211,0,0,1-6.128-6.2A6.3,6.3,0,0,1,15.083,39.8a6.115,6.115,0,1,1-.014,12.227Z" transform="translate(-8.939 1.098)" fill="#2460a8"/>
              <path id="Path_3966" data-name="Path 3966" d="M71.462,52.023a6.24,6.24,0,0,1-6.172-6,6.186,6.186,0,1,1,12.372.058A6.168,6.168,0,0,1,71.462,52.023Z" transform="translate(16.346 1.102)" fill="#2460a8"/>
              <path id="Path_3967" data-name="Path 3967" d="M29.161,15.44a6.016,6.016,0,0,1,6.07,6.2,5.917,5.917,0,0,1-6.1,5.925,6.026,6.026,0,0,1-6.041-6.229A5.817,5.817,0,0,1,29.161,15.44Z" transform="translate(-2.59 -9.834)" fill="#2460a8"/>
              <path id="Path_3968" data-name="Path 3968" d="M12.84,31.8a5.968,5.968,0,0,1,5.954-6.1,6.159,6.159,0,1,1-5.954,6.1Z" transform="translate(-7.189 -5.229)" fill="#2460a8"/>
              <path id="Path_3969" data-name="Path 3969" d="M73.662,60.154a6.044,6.044,0,0,1-6.1,5.969,6.15,6.15,0,0,1-6.012-6.316,6.249,6.249,0,0,1,6.143-6.027A6.086,6.086,0,0,1,73.662,60.154Z" transform="translate(14.668 7.371)" fill="#2460a8"/>
              <path id="Path_3970" data-name="Path 3970" d="M73.7,31.686a5.9,5.9,0,0,1-6,6.2,6.2,6.2,0,0,1-6.215-5.9,6.049,6.049,0,0,1,5.838-6.229A6.148,6.148,0,0,1,73.7,31.686Z" transform="translate(14.641 -5.203)" fill="#2460a8"/>
              <path id="Path_3971" data-name="Path 3971" d="M57.172,27.485a5.9,5.9,0,0,1-5.882-5.911,6.168,6.168,0,0,1,6.186-6.114,6.015,6.015,0,1,1-.3,12.024Z" transform="translate(10.064 -9.825)" fill="#2460a8"/>
              <path id="Path_3972" data-name="Path 3972" d="M24.883,59.9a6.091,6.091,0,0,1-6,6.114,5.917,5.917,0,0,1-6.056-5.969,5.985,5.985,0,0,1,5.882-6.186A5.894,5.894,0,0,1,24.883,59.9Z" transform="translate(-7.194 7.406)" fill="#2460a8"/>
            </g>
          </g>
        </g>
      </g>
      <g id="Group_1038" data-name="Group 1038">
        <g id="p" transform="translate(674.5 1895.913)">
          <path id="Path_3939" data-name="Path 3939" d="M74.48,90.964c-1.748.388-3.063.675-4.648,1.025V85.58c-3.032,2.928-5.425,5.238-8.156,7.873,3.37,2.24,3.032,4.881,1.1,7.783-1.209-1.165-2.462-2.38-4.26-4.118-1.986,3.437-4.028,6.568-5.669,9.9-2,4.073-1.861,4.149-6.521,6.3.827-7.745,4.874-13.689,9.121-19.621-1.936-3.15-4.1-6.148-5.682-9.425a34.481,34.481,0,0,1-3.289-9.527c-1.522-10.1,4.379-17.342,14.8-18.3a67.176,67.176,0,0,1,11.865.1c2.092.178,2.806-.573,3.734-2.259,2.111-3.869,4.166-7.892,6.966-11.226,7.154-8.509,16.757-8.655,24.018-.3,2.988,3.437,5.137,7.669,7.386,11.7.89,1.6,1.56,2.177,3.5,2.107,4.767-.165,9.685-.49,14.308.439,10.624,2.145,15.348,10.635,11.7,21.021-1.9,5.416-5,10.4-7.818,16.1,3.615,5.289,7.843,11.207,8.7,19.093-2.857-1.069-4.974-1.96-6.1-5.2-1.309-3.787-3.821-7.141-5.964-10.959-2.086,2.03-3.652,3.545-5.262,5.117-2.374-3.456-1.779-6.243,2.218-8.5-2.606-2.985-4.83-5.524-7.054-8.063-.37.318-.739.63-1.115.948v6.065L118.112,91.2c-.132-.261-.288-.439-.294-.624-.62-9.553-.589-9.6-8.588-14.644A112.832,112.832,0,0,0,98.31,69.765a5.7,5.7,0,0,0-4.554-.025C88.444,72.654,83.363,76,78.114,79.031c-2.65,1.534-3.915,3.6-3.658,6.708C74.593,87.419,74.48,89.119,74.48,90.964ZM58.625,89.558c3.834-3.481,7.411-6.7,10.944-9.966a3.142,3.142,0,0,0,.958-1.572c1.071-5.461,2.074-10.927,3.1-16.388-4.861-1.6-12.466-1.2-16.857.872-4.717,2.227-6.853,6.523-5.838,11.729C52.06,80.005,54.967,84.842,58.625,89.558ZM118.331,61.39c1.09,5.842,2.092,11.239,3.12,16.623a2.14,2.14,0,0,0,.507,1.12c3.746,3.443,7.517,6.854,12.04,10.959,2.412-5.13,5.112-9.674,6.722-14.593,1.954-5.982-.495-10.883-5.726-13.129C129.613,60.053,124.063,60.321,118.331,61.39ZM80.463,57.508c5.212,1.935,9.891,3.685,14.583,5.4a2.412,2.412,0,0,0,1.491.165c4.955-1.814,9.885-3.691,14.953-5.6-2.042-5.1-4.479-9.731-8.582-13.218-4.053-3.443-8.607-3.774-12.673-.859C85.374,46.879,82.749,51.977,80.463,57.508Zm9.729,8.369C86.345,64.655,83.138,63.6,79.9,62.65c-.37-.108-1.215.216-1.29.5-.977,3.589-1.861,7.211-2.763,10.819.288.045.576.1.858.14C80.964,71.509,85.217,68.906,90.191,65.877Zm26.173,8.853c-1.1-4.646-2-8.42-2.988-12.582-4,1.292-7.467,2.418-11.558,3.742C106.83,68.938,111.146,71.56,116.364,74.729Z" transform="translate(-46.241 -36.586)" fill="#2460a8"/>
          <path id="Path_3940" data-name="Path 3940" d="M46.715,206.767V195.986l-.754-.126a7.1,7.1,0,0,0-.4,1.606c-.042,2.858-.074,5.72.007,8.578.032,1.161-.351,1.827-1.494,1.852-2.36.046-4.724.035-7.084-.018-1.1-.025-1.4-.736-1.382-1.785q.074-4.377-.028-8.754a4.176,4.176,0,0,0-.614-1.4c-.214.459-.61.919-.617,1.385-.056,3.086-.028,6.176-.028,9.29-2.494-.537-3.248-1.417-3.251-3.711,0-3.153-.018-6.3.007-9.455.018-2.339.842-3.213,3.142-3.234q6.392-.058,12.78,0c2.171.021,3.048.954,3.065,3.142.025,3.093.007,6.187.007,9.28C50.065,205.28,49.746,205.7,46.715,206.767Z" transform="translate(-19.923 -111.451)" fill="#2460a8"/>
          <path id="Path_3941" data-name="Path 3941" d="M169.34,206.776c-3.114-1.28-3.276-1.512-3.276-4.426,0-2.981-.025-5.962.011-8.943.028-2.287.919-3.184,3.206-3.2q6.313-.047,12.626,0c2.3.021,3.153.926,3.167,3.223.018,2.981,0,5.962,0,8.943s0,2.992-3.356,4.5V195.956l-.733-.084a6.409,6.409,0,0,0-.417,1.519c-.042,2.806-.109,5.615.014,8.414.063,1.417-.491,2.139-1.782,2.181-2.2.074-4.4.039-6.6-.046-1.185-.046-1.652-.726-1.61-1.982.091-2.862.056-5.727,0-8.589a4.345,4.345,0,0,0-.589-1.427c-.221.459-.624.915-.635,1.378C169.312,200.41,169.34,203.5,169.34,206.776Z" transform="translate(-96.601 -111.445)" fill="#2460a8"/>
          <path id="Path_3942" data-name="Path 3942" d="M113.307,205.744c-1.045-3.22-2.048-6.3-3.051-9.378-.214.014-.424.032-.638.046a5.411,5.411,0,0,0,.018,1.431c.824,2.9,1.7,5.787,2.588,8.764a15.143,15.143,0,0,1-14.13-.007c.968-3.377,1.918-6.688,2.869-10-.263-.077-.526-.158-.789-.235Q98.636,201,97.1,205.628c-2.473-.849-2.953-1.683-2.248-3.977.821-2.672,1.655-5.341,2.532-7.993.828-2.5,2.15-3.43,4.815-3.451,2.1-.018,4.2-.032,6.3.007a4.416,4.416,0,0,1,4.493,3.416c.817,2.553,1.624,5.11,2.448,7.66C116.3,203.934,116.116,204.359,113.307,205.744Z" transform="translate(-55.713 -111.451)" fill="#2460a8"/>
          <path id="Path_3943" data-name="Path 3943" d="M137.059,165.52c2-3.7,1.761-5.608-1.049-8.985,1.624-1.512,14.253-1.357,15.708.088-.6,1.42-1.484,2.746-1.669,4.163s.326,2.918.561,4.57c-4.1-.123-6.565,1.845-6.271,6.576-.147.091-.291.186-.438.277-.586-.414-1.554-.726-1.694-1.259A7.737,7.737,0,0,0,137.059,165.52Z" transform="translate(-80.864 -90.739)" fill="#2460a8"/>
          <path id="Path_3944" data-name="Path 3944" d="M86.056,165.792a7.764,7.764,0,0,0-5.117,5.31c-.151.53-.775.926-1.438,1.676-.807-5.931-.978-6.106-6.821-7.242a6.568,6.568,0,0,0,.133-6.965,1.071,1.071,0,0,1,.235-1.024,8.435,8.435,0,0,1,3.027-1.448,36.635,36.635,0,0,1,6.3-.021,6.18,6.18,0,0,1,2.543.957c.835.48,1.066,1.136.505,2.178C84.232,161.409,84.625,163.607,86.056,165.792Z" transform="translate(-43.2 -91.021)" fill="#2460a8"/>
          <path id="Path_3945" data-name="Path 3945" d="M117.374,161.4a4.048,4.048,0,0,1,.1,8.094,3.989,3.989,0,0,1-4.093-4.089A3.947,3.947,0,0,1,117.374,161.4Z" transform="translate(-67.932 -95.178)" fill="#2460a8"/>
          <path id="Path_3946" data-name="Path 3946" d="M54.58,165.532a3.956,3.956,0,0,1-3.935,4.044A4.187,4.187,0,0,1,46.56,165.6a4.09,4.09,0,0,1,4.023-4.016A3.883,3.883,0,0,1,54.58,165.532Z" transform="translate(-27.734 -95.296)" fill="#2460a8"/>
          <path id="Path_3947" data-name="Path 3947" d="M189.722,165.567a3.928,3.928,0,0,1-3.949,4.016,4.118,4.118,0,0,1-4.033-4.009,4.021,4.021,0,0,1,4.019-3.984A3.9,3.9,0,0,1,189.722,165.567Z" transform="translate(-109.066 -95.303)" fill="#2460a8"/>
          <path id="Path_3948" data-name="Path 3948" d="M88.291,133.876a3.731,3.731,0,0,1-3.732,3.644,3.641,3.641,0,1,1,3.732-3.644Z" transform="translate(-48.447 -76.316)" fill="#2460a8"/>
          <path id="Path_3949" data-name="Path 3949" d="M155.141,133.737a3.5,3.5,0,0,1-3.437,3.619,3.453,3.453,0,0,1-3.654-3.563,3.546,3.546,0,0,1,7.091-.056Z" transform="translate(-88.874 -76.328)" fill="#2460a8"/>
        </g>
      </g>
      <g id="Group_1126" data-name="Group 1126">
        <path id="Path_4688" data-name="Path 4688" d="M2.839-1.278H7.728V0H1.154V-12.086H2.839ZM15.132-5.611h-4.1v4.333h4.831V0H9.347V-12.086h6.475v1.295h-4.79V-6.9h4.1Zm7.936,2.573A1.986,1.986,0,0,0,22.595-4.4a4.145,4.145,0,0,0-1.668-.975,6.849,6.849,0,0,1-2.615-1.37A2.885,2.885,0,0,1,17.4-8.981a3.054,3.054,0,0,1,1.009-2.353,3.675,3.675,0,0,1,2.586-.926,3.6,3.6,0,0,1,2.689,1.029,3.421,3.421,0,0,1,.979,2.582l-.017.05H23.026a2.541,2.541,0,0,0-.564-1.718,1.865,1.865,0,0,0-1.486-.656,1.749,1.749,0,0,0-1.39.564A2.066,2.066,0,0,0,19.092-9a1.751,1.751,0,0,0,.523,1.3,5.043,5.043,0,0,0,1.76.971A6.192,6.192,0,0,1,23.89-5.312a3.071,3.071,0,0,1,.863,2.258A2.948,2.948,0,0,1,23.736-.7a3.946,3.946,0,0,1-2.669.876,4.3,4.3,0,0,1-2.772-.946,3.175,3.175,0,0,1-1.137-2.714l.017-.05H18.8A2.388,2.388,0,0,0,19.453-1.7a2.281,2.281,0,0,0,1.615.606,2,2,0,0,0,1.469-.527A1.9,1.9,0,0,0,23.068-3.038Zm9.081,0A1.986,1.986,0,0,0,31.676-4.4a4.145,4.145,0,0,0-1.668-.975,6.849,6.849,0,0,1-2.615-1.37,2.885,2.885,0,0,1-.913-2.233,3.054,3.054,0,0,1,1.009-2.353,3.675,3.675,0,0,1,2.586-.926,3.6,3.6,0,0,1,2.689,1.029,3.421,3.421,0,0,1,.979,2.582l-.017.05H32.107a2.541,2.541,0,0,0-.564-1.718,1.865,1.865,0,0,0-1.486-.656,1.749,1.749,0,0,0-1.39.564A2.066,2.066,0,0,0,28.173-9a1.751,1.751,0,0,0,.523,1.3,5.043,5.043,0,0,0,1.76.971,6.192,6.192,0,0,1,2.515,1.411,3.071,3.071,0,0,1,.863,2.258A2.948,2.948,0,0,1,32.817-.7a3.946,3.946,0,0,1-2.669.876,4.3,4.3,0,0,1-2.772-.946,3.175,3.175,0,0,1-1.137-2.714l.017-.05h1.627A2.388,2.388,0,0,0,28.534-1.7a2.281,2.281,0,0,0,1.615.606,2,2,0,0,0,1.469-.527A1.9,1.9,0,0,0,32.149-3.038Zm12.816,0A1.986,1.986,0,0,0,44.492-4.4a4.145,4.145,0,0,0-1.668-.975,6.849,6.849,0,0,1-2.615-1.37A2.885,2.885,0,0,1,39.3-8.981,3.054,3.054,0,0,1,40.3-11.335a3.675,3.675,0,0,1,2.586-.926,3.6,3.6,0,0,1,2.689,1.029,3.421,3.421,0,0,1,.979,2.582l-.017.05H44.924a2.541,2.541,0,0,0-.564-1.718,1.865,1.865,0,0,0-1.486-.656,1.749,1.749,0,0,0-1.39.564A2.066,2.066,0,0,0,40.989-9a1.751,1.751,0,0,0,.523,1.3,5.043,5.043,0,0,0,1.76.971,6.192,6.192,0,0,1,2.515,1.411,3.071,3.071,0,0,1,.863,2.258A2.948,2.948,0,0,1,45.634-.7a3.946,3.946,0,0,1-2.669.876,4.3,4.3,0,0,1-2.772-.946,3.175,3.175,0,0,1-1.137-2.714l.017-.05H40.7A2.388,2.388,0,0,0,41.35-1.7a2.281,2.281,0,0,0,1.615.606,2,2,0,0,0,1.469-.527A1.9,1.9,0,0,0,44.965-3.038Zm6.084-2.4h-.83V0H48.535V-12.086H50.22v5.3h.714l3.37-5.3h2.042L52.361-6.408,56.653,0H54.511ZM59.749,0H58.064V-12.086h1.685ZM63.9-1.278h4.889V0H62.214V-12.086H63.9Zm8.193,0h4.889V0H70.407V-12.086h1.685ZM84.386-5.611h-4.1v4.333h4.831V0H78.6V-12.086h6.475v1.295h-4.79V-6.9h4.1ZM86.81,0V-12.086h3.428a4.015,4.015,0,0,1,3.2,1.453A5.549,5.549,0,0,1,94.679-6.9V-5.18a5.529,5.529,0,0,1-1.241,3.735A4.025,4.025,0,0,1,90.238,0Zm1.685-10.791v9.513h1.743A2.305,2.305,0,0,0,92.23-2.37a4.874,4.874,0,0,0,.747-2.81V-6.915A4.827,4.827,0,0,0,92.23-9.7a2.305,2.305,0,0,0-1.992-1.092ZM5.346,15.5H1.137V14.214H5.346Zm11.82.374h1.4v1.287h-1.4V20h-1.7V17.161H10.857l-.05-.946,4.6-8.3h1.76Zm-4.69,0h2.988V10.247l-.05-.017-.224.515Zm7.8-1.253.614-6.707h5.719V9.3h-4.3l-.332,3.636a2.752,2.752,0,0,1,.793-.519,2.814,2.814,0,0,1,1.067-.22,2.773,2.773,0,0,1,2.328,1.038,4.534,4.534,0,0,1,.843,2.905,4.569,4.569,0,0,1-.88,2.926,3.176,3.176,0,0,1-2.648,1.108,3.569,3.569,0,0,1-2.42-.851,2.969,2.969,0,0,1-.942-2.461l.017-.042,1.6-.033a2.29,2.29,0,0,0,.481,1.561,1.6,1.6,0,0,0,1.262.548,1.52,1.52,0,0,0,1.37-.71,3.757,3.757,0,0,0,.457-2.03,3.45,3.45,0,0,0-.469-1.917,1.518,1.518,0,0,0-1.349-.714,1.868,1.868,0,0,0-1.179.311,1.753,1.753,0,0,0-.564.926ZM30.646,20h-1.7V18.315h1.7Zm8.2-4.125h1.4v1.287h-1.4V20h-1.7V17.161H32.539l-.05-.946,4.6-8.3h1.76Zm-4.69,0h2.988V10.247l-.05-.017-.224.515ZM45.048,13.16a1.59,1.59,0,0,0,1.345-.56,2.407,2.407,0,0,0,.432-1.507,2.387,2.387,0,0,0-.436-1.486,1.5,1.5,0,0,0-1.274-.573,1.633,1.633,0,0,0-1.278.573,2.124,2.124,0,0,0-.506,1.461H41.687l-.017-.05a2.962,2.962,0,0,1,.95-2.337,3.9,3.9,0,0,1,5-.071,3.256,3.256,0,0,1,.926,2.49,2.916,2.916,0,0,1-1.652,2.656,2.81,2.81,0,0,1,1.353,1.1,3.288,3.288,0,0,1,.473,1.81,3.339,3.339,0,0,1-1.009,2.577,3.667,3.667,0,0,1-2.594.934,3.823,3.823,0,0,1-2.519-.9A2.94,2.94,0,0,1,41.554,16.8l.017-.05h1.635a2.257,2.257,0,0,0,.535,1.531,1.857,1.857,0,0,0,2.76.008,2.407,2.407,0,0,0,.515-1.606,2.476,2.476,0,0,0-.5-1.693,1.871,1.871,0,0,0-1.469-.556H43.886V13.16Zm5.246-2.922a2.655,2.655,0,0,1,.61-1.781,2.293,2.293,0,0,1,3.333,0,2.643,2.643,0,0,1,.614,1.781v.639a2.623,2.623,0,0,1-.61,1.772,2.071,2.071,0,0,1-1.656.71,2.1,2.1,0,0,1-1.677-.71,2.612,2.612,0,0,1-.614-1.772Zm1.2.639a1.885,1.885,0,0,0,.282,1.054.914.914,0,0,0,.813.432.892.892,0,0,0,.789-.432,1.885,1.885,0,0,0,.282-1.054v-.639a1.905,1.905,0,0,0-.286-1.062.9.9,0,0,0-.8-.44.892.892,0,0,0-.8.44,1.948,1.948,0,0,0-.278,1.063Zm4.067,6.159a2.632,2.632,0,0,1,.614-1.772,2.3,2.3,0,0,1,3.337,0,2.628,2.628,0,0,1,.614,1.776v.647a2.624,2.624,0,0,1-.614,1.781,2.311,2.311,0,0,1-3.337,0,2.628,2.628,0,0,1-.614-1.776Zm1.2.647a1.85,1.85,0,0,0,.295,1.054.917.917,0,0,0,.8.44.9.9,0,0,0,.809-.423,1.958,1.958,0,0,0,.27-1.071v-.647a1.9,1.9,0,0,0-.282-1.062.967.967,0,0,0-1.61,0,1.9,1.9,0,0,0-.282,1.063Zm-3.627,1.378-.872-.523,5.08-9.446.872.523Z" transform="translate(831 2034)" fill="#0054a5"/>
        <g id="Group_1125" data-name="Group 1125">
          <path id="Path_4687" data-name="Path 4687" d="M2.839-4.765V0H1.154V-12.086H5.08a3.572,3.572,0,0,1,2.694,1.009,3.654,3.654,0,0,1,.975,2.652,3.651,3.651,0,0,1-.975,2.656,3.58,3.58,0,0,1-2.694,1Zm0-1.295H5.08a1.749,1.749,0,0,0,1.486-.668,2.7,2.7,0,0,0,.506-1.681,2.788,2.788,0,0,0-.5-1.7,1.734,1.734,0,0,0-1.49-.681H2.839ZM12.21-5.2V0H10.525V-12.078h3.561a3.8,3.8,0,0,1,2.694.888,3.318,3.318,0,0,1,.95,2.548,3.056,3.056,0,0,1-.444,1.656,2.927,2.927,0,0,1-1.274,1.1,2.313,2.313,0,0,1,1.341,1.046,3.647,3.647,0,0,1,.411,1.81v1.054a4.739,4.739,0,0,0,.108,1.038,1.455,1.455,0,0,0,.382.747V0H16.519a1.437,1.437,0,0,1-.369-.834,7.525,7.525,0,0,1-.087-1.158V-3.013a2.5,2.5,0,0,0-.469-1.6,1.568,1.568,0,0,0-1.3-.589Zm0-1.287H14a1.979,1.979,0,0,0,1.544-.552,2.256,2.256,0,0,0,.5-1.565,2.418,2.418,0,0,0-.486-1.61,1.824,1.824,0,0,0-1.473-.573H12.21Zm15.9,2.117a4.613,4.613,0,0,1-1.162,3.349A4.134,4.134,0,0,1,23.84.174a4.021,4.021,0,0,1-3.063-1.2A4.674,4.674,0,0,1,19.64-4.375v-3.32a4.708,4.708,0,0,1,1.137-3.354,3.989,3.989,0,0,1,3.055-1.212,4.133,4.133,0,0,1,3.117,1.208,4.633,4.633,0,0,1,1.166,3.358ZM26.438-7.72a3.677,3.677,0,0,0-.677-2.395,2.363,2.363,0,0,0-1.93-.818,2.244,2.244,0,0,0-1.864.818,3.777,3.777,0,0,0-.652,2.395v3.345a3.809,3.809,0,0,0,.656,2.416,2.251,2.251,0,0,0,1.868.822,2.351,2.351,0,0,0,1.926-.818,3.738,3.738,0,0,0,.672-2.42ZM36-5.371H31.775V0H30.09V-12.086h6.641v1.295H31.775v4.134H36Zm8.077-.241h-4.1v4.333h4.831V0H38.292V-12.086h6.475v1.295h-4.79V-6.9h4.1Zm7.936,2.573A1.986,1.986,0,0,0,51.54-4.4a4.145,4.145,0,0,0-1.668-.975,6.849,6.849,0,0,1-2.615-1.37,2.885,2.885,0,0,1-.913-2.233,3.054,3.054,0,0,1,1.009-2.353,3.675,3.675,0,0,1,2.586-.926,3.6,3.6,0,0,1,2.689,1.029,3.421,3.421,0,0,1,.979,2.582l-.017.05H51.971a2.541,2.541,0,0,0-.564-1.718,1.865,1.865,0,0,0-1.486-.656,1.749,1.749,0,0,0-1.39.564A2.066,2.066,0,0,0,48.037-9a1.751,1.751,0,0,0,.523,1.3,5.043,5.043,0,0,0,1.76.971,6.192,6.192,0,0,1,2.515,1.411A3.071,3.071,0,0,1,53.7-3.055,2.948,2.948,0,0,1,52.681-.7a3.946,3.946,0,0,1-2.669.876A4.3,4.3,0,0,1,47.24-.772,3.175,3.175,0,0,1,46.1-3.486l.017-.05h1.627A2.388,2.388,0,0,0,48.4-1.7a2.281,2.281,0,0,0,1.615.606,2,2,0,0,0,1.469-.527A1.9,1.9,0,0,0,52.013-3.038Zm9.081,0A1.986,1.986,0,0,0,60.621-4.4a4.145,4.145,0,0,0-1.668-.975,6.849,6.849,0,0,1-2.615-1.37,2.885,2.885,0,0,1-.913-2.233,3.054,3.054,0,0,1,1.009-2.353,3.675,3.675,0,0,1,2.586-.926,3.6,3.6,0,0,1,2.689,1.029,3.421,3.421,0,0,1,.979,2.582l-.017.05H61.052a2.541,2.541,0,0,0-.564-1.718A1.865,1.865,0,0,0,59-10.974a1.749,1.749,0,0,0-1.39.564A2.066,2.066,0,0,0,57.118-9a1.751,1.751,0,0,0,.523,1.3,5.043,5.043,0,0,0,1.76.971,6.192,6.192,0,0,1,2.515,1.411,3.071,3.071,0,0,1,.863,2.258A2.948,2.948,0,0,1,61.762-.7a3.946,3.946,0,0,1-2.669.876,4.3,4.3,0,0,1-2.772-.946,3.175,3.175,0,0,1-1.137-2.714l.017-.05h1.627A2.388,2.388,0,0,0,57.479-1.7a2.281,2.281,0,0,0,1.615.606,2,2,0,0,0,1.469-.527A1.9,1.9,0,0,0,61.094-3.038ZM66.5,0H64.813V-12.086H66.5ZM77.1-4.375a4.613,4.613,0,0,1-1.162,3.349,4.134,4.134,0,0,1-3.113,1.2,4.021,4.021,0,0,1-3.063-1.2,4.674,4.674,0,0,1-1.137-3.349v-3.32a4.708,4.708,0,0,1,1.137-3.354,3.989,3.989,0,0,1,3.055-1.212,4.133,4.133,0,0,1,3.117,1.208A4.633,4.633,0,0,1,77.1-7.695ZM75.421-7.72a3.677,3.677,0,0,0-.677-2.395,2.363,2.363,0,0,0-1.93-.818,2.244,2.244,0,0,0-1.864.818A3.777,3.777,0,0,0,70.3-7.72v3.345a3.809,3.809,0,0,0,.656,2.416,2.251,2.251,0,0,0,1.868.822,2.351,2.351,0,0,0,1.926-.818,3.738,3.738,0,0,0,.672-2.42ZM87.183,0H85.49L80.808-8.915l-.05.017V0H79.073V-12.086h1.685L85.44-3.2l.05-.008v-8.882h1.693Zm7.8-3.055H91.375L90.5,0H88.752l3.627-12.086h1.635L97.609,0H95.857ZM91.757-4.391h2.855L93.218-9.305h-.05Zm8.923,3.113h4.889V0H99V-12.086h1.685ZM5.346,15.5H1.137V14.214H5.346Zm12.858.2a5.074,5.074,0,0,1-.967,3.275,3.143,3.143,0,0,1-2.577,1.2,3.163,3.163,0,0,1-2.59-1.2A5.059,5.059,0,0,1,11.1,15.7V12.222a5.114,5.114,0,0,1,.963-3.271A3.127,3.127,0,0,1,14.643,7.74a3.155,3.155,0,0,1,2.59,1.208,5.08,5.08,0,0,1,.971,3.275Zm-1.71-3.719a4.1,4.1,0,0,0-.486-2.158,1.573,1.573,0,0,0-2.727,0,4.131,4.131,0,0,0-.481,2.158v3.951a4.119,4.119,0,0,0,.49,2.167,1.529,1.529,0,0,0,1.37.8,1.5,1.5,0,0,0,1.357-.793,4.2,4.2,0,0,0,.477-2.171ZM21.881,20h-1.7V18.315h1.7Zm8.2-4.125h1.4v1.287h-1.4V20h-1.7V17.161H23.773l-.05-.946,4.6-8.3h1.76Zm-4.69,0H28.38V10.247l-.05-.017-.224.515ZM37.536,20H35.843V9.342l-2.357.149V8.238l4.051-.5Zm3.993-9.762a2.655,2.655,0,0,1,.61-1.781,2.293,2.293,0,0,1,3.333,0,2.643,2.643,0,0,1,.614,1.781v.639a2.623,2.623,0,0,1-.61,1.772,2.071,2.071,0,0,1-1.656.71,2.1,2.1,0,0,1-1.677-.71,2.612,2.612,0,0,1-.614-1.772Zm1.2.639a1.885,1.885,0,0,0,.282,1.054.914.914,0,0,0,.813.432.892.892,0,0,0,.789-.432,1.885,1.885,0,0,0,.282-1.054v-.639A1.905,1.905,0,0,0,44.6,9.176a.9.9,0,0,0-.8-.44.892.892,0,0,0-.8.44,1.948,1.948,0,0,0-.278,1.063Zm4.067,6.159a2.632,2.632,0,0,1,.614-1.772,2.3,2.3,0,0,1,3.337,0,2.628,2.628,0,0,1,.614,1.776v.647a2.624,2.624,0,0,1-.614,1.781,2.311,2.311,0,0,1-3.337,0,2.628,2.628,0,0,1-.614-1.776Zm1.2.647a1.85,1.85,0,0,0,.295,1.054.917.917,0,0,0,.8.44.9.9,0,0,0,.809-.423,1.958,1.958,0,0,0,.27-1.071v-.647a1.9,1.9,0,0,0-.282-1.062.967.967,0,0,0-1.61,0,1.9,1.9,0,0,0-.282,1.063Zm-3.627,1.378-.872-.523,5.08-9.446.872.523Z" transform="translate(1143 2034)" fill="#0054a5"/>
          <path id="Path_4721" data-name="Path 4721" d="M6.666-3.038A1.986,1.986,0,0,0,6.192-4.4a4.145,4.145,0,0,0-1.668-.975,6.849,6.849,0,0,1-2.615-1.37A2.885,2.885,0,0,1,1-8.981,3.054,3.054,0,0,1,2-11.335,3.675,3.675,0,0,1,4.59-12.26,3.6,3.6,0,0,1,7.28-11.231a3.421,3.421,0,0,1,.979,2.582l-.017.05H6.624a2.541,2.541,0,0,0-.564-1.718,1.865,1.865,0,0,0-1.486-.656,1.749,1.749,0,0,0-1.39.564A2.066,2.066,0,0,0,2.689-9a1.751,1.751,0,0,0,.523,1.3,5.043,5.043,0,0,0,1.76.971A6.192,6.192,0,0,1,7.487-5.312a3.071,3.071,0,0,1,.863,2.258A2.948,2.948,0,0,1,7.334-.7,3.946,3.946,0,0,1,4.665.174,4.3,4.3,0,0,1,1.893-.772,3.175,3.175,0,0,1,.755-3.486l.017-.05H2.4A2.388,2.388,0,0,0,3.051-1.7,2.281,2.281,0,0,0,4.665-1.1a2,2,0,0,0,1.469-.527A1.9,1.9,0,0,0,6.666-3.038Zm9.355-2.573h-4.1v4.333h4.831V0H10.235V-12.086h6.475v1.295H11.92V-6.9h4.1Zm7.462,3.387h.05l2.9-9.861h2.158V0H26.911V-8.708l-.05-.008L24.089,0H22.935L20.121-8.849l-.05.008V0H18.395V-12.086h2.2ZM32.68,0H31V-12.086H32.68Zm6.657-4.5H35.129V-5.786h4.208ZM47.19-3.038A1.986,1.986,0,0,0,46.717-4.4a4.145,4.145,0,0,0-1.668-.975,6.849,6.849,0,0,1-2.615-1.37,2.885,2.885,0,0,1-.913-2.233,3.054,3.054,0,0,1,1.009-2.353,3.675,3.675,0,0,1,2.586-.926A3.6,3.6,0,0,1,47.8-11.231a3.421,3.421,0,0,1,.979,2.582l-.017.05H47.148a2.541,2.541,0,0,0-.564-1.718,1.865,1.865,0,0,0-1.486-.656,1.749,1.749,0,0,0-1.39.564A2.066,2.066,0,0,0,43.214-9a1.751,1.751,0,0,0,.523,1.3,5.043,5.043,0,0,0,1.76.971,6.192,6.192,0,0,1,2.515,1.411,3.071,3.071,0,0,1,.863,2.258A2.948,2.948,0,0,1,47.858-.7a3.946,3.946,0,0,1-2.669.876,4.3,4.3,0,0,1-2.772-.946A3.175,3.175,0,0,1,41.28-3.486l.017-.05h1.627A2.388,2.388,0,0,0,43.575-1.7a2.281,2.281,0,0,0,1.615.606,2,2,0,0,0,1.469-.527A1.9,1.9,0,0,0,47.19-3.038Zm6.084-2.4h-.83V0H50.759V-12.086h1.685v5.3h.714l3.37-5.3H58.57L54.586-6.408,58.877,0H56.736ZM61.974,0H60.289V-12.086h1.685V0Zm4.15-1.278h4.889V0H64.439V-12.086h1.685Zm8.193,0h4.889V0H72.632V-12.086h1.685ZM86.61-5.611h-4.1v4.333h4.831V0H80.825V-12.086H87.3v1.295H82.51V-6.9h4.1ZM89.034,0V-12.086h3.428a4.015,4.015,0,0,1,3.2,1.453A5.549,5.549,0,0,1,96.9-6.9V-5.18a5.529,5.529,0,0,1-1.241,3.735A4.025,4.025,0,0,1,92.462,0Zm1.685-10.791v9.513h1.743A2.305,2.305,0,0,0,94.455-2.37,4.874,4.874,0,0,0,95.2-5.18V-6.915A4.827,4.827,0,0,0,94.455-9.7a2.305,2.305,0,0,0-1.992-1.092ZM5.346,15.5H1.137V14.214H5.346ZM15.854,20H14.161V9.342L11.8,9.491V8.238l4.051-.5Zm8.1-12.26a5.118,5.118,0,0,1,1.212.141,4.657,4.657,0,0,1,1.046.382L25.882,9.5a3.872,3.872,0,0,0-1.926-.457,1.91,1.91,0,0,0-1.639.938,4.322,4.322,0,0,0-.635,2.465v.946a3.135,3.135,0,0,1,1.071-.822,3.2,3.2,0,0,1,1.386-.3,2.6,2.6,0,0,1,2.2,1.058,4.589,4.589,0,0,1,.793,2.818,4.29,4.29,0,0,1-.963,2.918,3.191,3.191,0,0,1-2.532,1.108,3.239,3.239,0,0,1-2.623-1.262,5.294,5.294,0,0,1-1.029-3.445V12.563a5.213,5.213,0,0,1,1.133-3.478A3.556,3.556,0,0,1,23.956,7.74Zm-.374,5.769a2.054,2.054,0,0,0-1.166.324,2.028,2.028,0,0,0-.735.88v.847a4.681,4.681,0,0,0,.548,2.449,1.62,1.62,0,0,0,1.411.9,1.484,1.484,0,0,0,1.32-.776,3.7,3.7,0,0,0,.481-1.98,3.346,3.346,0,0,0-.49-1.934A1.573,1.573,0,0,0,23.583,13.509ZM30.646,20h-1.7V18.315h1.7Zm8.2-4.125h1.4v1.287h-1.4V20h-1.7V17.161H32.539l-.05-.946,4.6-8.3h1.76Zm-4.69,0h2.988V10.247l-.05-.017-.224.515ZM48.784,9.209a15.943,15.943,0,0,0-2.64,4.565,15.06,15.06,0,0,0-.739,4.906V20H43.7V18.68a13.7,13.7,0,0,1,.884-5.01,18.861,18.861,0,0,1,2.528-4.462H41.388V7.914h7.4Zm1.511,1.029a2.655,2.655,0,0,1,.61-1.781,2.293,2.293,0,0,1,3.333,0,2.643,2.643,0,0,1,.614,1.781v.639a2.623,2.623,0,0,1-.61,1.772,2.071,2.071,0,0,1-1.656.71,2.1,2.1,0,0,1-1.677-.71,2.612,2.612,0,0,1-.614-1.772Zm1.2.639a1.885,1.885,0,0,0,.282,1.054.914.914,0,0,0,.813.432.892.892,0,0,0,.789-.432,1.885,1.885,0,0,0,.282-1.054v-.639a1.905,1.905,0,0,0-.286-1.062.9.9,0,0,0-.8-.44.892.892,0,0,0-.8.44,1.948,1.948,0,0,0-.278,1.063Zm4.067,6.159a2.632,2.632,0,0,1,.614-1.772,2.3,2.3,0,0,1,3.337,0,2.628,2.628,0,0,1,.614,1.776v.647a2.624,2.624,0,0,1-.614,1.781,2.311,2.311,0,0,1-3.337,0,2.628,2.628,0,0,1-.614-1.776Zm1.2.647a1.85,1.85,0,0,0,.295,1.054.917.917,0,0,0,.8.44.9.9,0,0,0,.809-.423,1.958,1.958,0,0,0,.27-1.071v-.647a1.9,1.9,0,0,0-.282-1.062.967.967,0,0,0-1.61,0,1.9,1.9,0,0,0-.282,1.063Zm-3.627,1.378-.872-.523,5.08-9.446.872.523Z" transform="translate(986 2034)" fill="#0054a5"/>
        </g>
        <path id="Path_4793" data-name="Path 4793" d="M6.666-3.038A1.986,1.986,0,0,0,6.192-4.4a4.145,4.145,0,0,0-1.668-.975,6.849,6.849,0,0,1-2.615-1.37A2.885,2.885,0,0,1,1-8.981,3.054,3.054,0,0,1,2-11.335,3.675,3.675,0,0,1,4.59-12.26,3.6,3.6,0,0,1,7.28-11.231a3.421,3.421,0,0,1,.979,2.582l-.017.05H6.624a2.541,2.541,0,0,0-.564-1.718,1.865,1.865,0,0,0-1.486-.656,1.749,1.749,0,0,0-1.39.564A2.066,2.066,0,0,0,2.689-9a1.751,1.751,0,0,0,.523,1.3,5.043,5.043,0,0,0,1.76.971A6.192,6.192,0,0,1,7.487-5.312a3.071,3.071,0,0,1,.863,2.258A2.948,2.948,0,0,1,7.334-.7,3.946,3.946,0,0,1,4.665.174,4.3,4.3,0,0,1,1.893-.772,3.175,3.175,0,0,1,.755-3.486l.017-.05H2.4A2.388,2.388,0,0,0,3.051-1.7,2.281,2.281,0,0,0,4.665-1.1a2,2,0,0,0,1.469-.527A1.9,1.9,0,0,0,6.666-3.038Zm6.084-2.4h-.83V0H10.235V-12.086H11.92v5.3h.714l3.37-5.3h2.042L14.062-6.408,18.353,0H16.211ZM21.449,0H19.764V-12.086h1.685ZM25.6-1.278h4.889V0H23.915V-12.086H25.6Zm8.193,0h4.889V0H32.107V-12.086h1.685ZM46.086-5.611h-4.1v4.333h4.831V0H40.3V-12.086h6.475v1.295h-4.79V-6.9h4.1ZM48.51,0V-12.086h3.428a4.015,4.015,0,0,1,3.2,1.453A5.549,5.549,0,0,1,56.379-6.9V-5.18a5.529,5.529,0,0,1-1.241,3.735A4.025,4.025,0,0,1,51.938,0Zm1.685-10.791v9.513h1.743A2.305,2.305,0,0,0,53.93-2.37a4.874,4.874,0,0,0,.747-2.81V-6.915A4.827,4.827,0,0,0,53.93-9.7a2.305,2.305,0,0,0-1.992-1.092ZM5.346,15.5H1.137V14.214H5.346ZM14.6,13.16a1.59,1.59,0,0,0,1.345-.56,2.407,2.407,0,0,0,.432-1.507,2.387,2.387,0,0,0-.436-1.486,1.5,1.5,0,0,0-1.274-.573,1.633,1.633,0,0,0-1.278.573,2.124,2.124,0,0,0-.506,1.461H11.239l-.017-.05a2.962,2.962,0,0,1,.95-2.337,3.479,3.479,0,0,1,2.494-.942,3.5,3.5,0,0,1,2.5.872A3.256,3.256,0,0,1,18.1,11.1a2.916,2.916,0,0,1-1.652,2.656,2.81,2.81,0,0,1,1.353,1.1,3.288,3.288,0,0,1,.473,1.81,3.339,3.339,0,0,1-1.009,2.577,3.667,3.667,0,0,1-2.594.934,3.823,3.823,0,0,1-2.519-.9A2.94,2.94,0,0,1,11.106,16.8l.017-.05h1.635a2.257,2.257,0,0,0,.535,1.531,1.857,1.857,0,0,0,2.76.008,2.407,2.407,0,0,0,.515-1.606,2.476,2.476,0,0,0-.5-1.693A1.871,1.871,0,0,0,14.6,14.43H13.439V13.16Zm11.331,2.714h1.4v1.287h-1.4V20h-1.7V17.161H19.623l-.05-.946,4.6-8.3h1.76Zm-4.69,0H24.23V10.247l-.05-.017-.224.515ZM30.646,20h-1.7V18.315h1.7Zm5.229-1.1a1.862,1.862,0,0,0,1.561-.8,3.656,3.656,0,0,0,.6-2.233V14.7a2.557,2.557,0,0,1-.909.888,2.349,2.349,0,0,1-1.175.307,2.93,2.93,0,0,1-2.407-1.087,4.523,4.523,0,0,1-.88-2.93,4.464,4.464,0,0,1,.984-2.968A3.1,3.1,0,0,1,36.125,7.74,3.289,3.289,0,0,1,38.744,8.9a4.847,4.847,0,0,1,1,3.262v3.652a4.5,4.5,0,0,1-1.083,3.2,3.643,3.643,0,0,1-2.785,1.158,5.33,5.33,0,0,1-1.166-.133,4.822,4.822,0,0,1-1.108-.39l.274-1.22a3.919,3.919,0,0,0,.938.357A4.722,4.722,0,0,0,35.876,18.9Zm.249-4.25a1.885,1.885,0,0,0,1.166-.365,2.352,2.352,0,0,0,.743-.946V11.915a3.783,3.783,0,0,0-.506-2.137,1.584,1.584,0,0,0-1.378-.743,1.47,1.47,0,0,0-1.278.813,3.833,3.833,0,0,0-.5,2.034,3.87,3.87,0,0,0,.457,2A1.431,1.431,0,0,0,36.125,14.646Zm5.835-.025.614-6.707h5.719V9.3h-4.3l-.332,3.636a2.752,2.752,0,0,1,.793-.519,2.814,2.814,0,0,1,1.067-.22,2.773,2.773,0,0,1,2.328,1.038,4.534,4.534,0,0,1,.843,2.905,4.569,4.569,0,0,1-.88,2.926,3.176,3.176,0,0,1-2.648,1.108,3.569,3.569,0,0,1-2.42-.851,2.969,2.969,0,0,1-.942-2.461l.017-.042,1.6-.033a2.29,2.29,0,0,0,.481,1.561,1.6,1.6,0,0,0,1.262.548,1.52,1.52,0,0,0,1.37-.71,3.757,3.757,0,0,0,.457-2.03,3.45,3.45,0,0,0-.469-1.917,1.518,1.518,0,0,0-1.349-.714,1.868,1.868,0,0,0-1.179.311,1.753,1.753,0,0,0-.564.926Zm8.334-4.383a2.655,2.655,0,0,1,.61-1.781,2.293,2.293,0,0,1,3.333,0,2.643,2.643,0,0,1,.614,1.781v.639a2.623,2.623,0,0,1-.61,1.772,2.071,2.071,0,0,1-1.656.71,2.1,2.1,0,0,1-1.677-.71,2.612,2.612,0,0,1-.614-1.772Zm1.2.639a1.885,1.885,0,0,0,.282,1.054.914.914,0,0,0,.813.432.892.892,0,0,0,.789-.432,1.885,1.885,0,0,0,.282-1.054v-.639a1.905,1.905,0,0,0-.286-1.062.9.9,0,0,0-.8-.44.892.892,0,0,0-.8.44,1.948,1.948,0,0,0-.278,1.063Zm4.067,6.159a2.632,2.632,0,0,1,.614-1.772,2.3,2.3,0,0,1,3.337,0,2.628,2.628,0,0,1,.614,1.776v.647a2.624,2.624,0,0,1-.614,1.781,2.311,2.311,0,0,1-3.337,0,2.628,2.628,0,0,1-.614-1.776Zm1.2.647a1.85,1.85,0,0,0,.295,1.054.917.917,0,0,0,.8.44.9.9,0,0,0,.809-.423,1.958,1.958,0,0,0,.27-1.071v-.647a1.9,1.9,0,0,0-.282-1.062.967.967,0,0,0-1.61,0,1.9,1.9,0,0,0-.282,1.063Zm-3.627,1.378-.872-.523,5.08-9.446.872.523Z" transform="translate(692 2034)" fill="#0054a5"/>
      </g>
    </g>
  </g>
</svg>
